# xmcd
#
# Track frame offsets:
#  150
#  19795
#  39050
#  62368
#
# Disc length: 1104 seconds
#
# Revision: 0
# Processed by: cddbd v1.5.2PL0 Copyright (c) Steve Scherf et al.
# Submitted via: AltoMP3_Maker 3.0
#
DISCID=20044e04
DTITLE=John Hiatt - CD Single
DYEAR=1900
DGENRE=Country
TTITLE0=Cry Love(single Edit)
TTITLE1=The Other Side
TTITLE2=Twenty-One
TTITLE3=Your Love Is My Rest
EXTD=
EXTT0=
EXTT1=
EXTT2=
EXTT3=
PLAYORDER=
